<?xml version="1.0" standalone="no"?>
<!DOCTYPE svg PUBLIC "-//W3C//DTD SVG 20010904//EN"
 "http://www.w3.org/TR/2001/REC-SVG-20010904/DTD/svg10.dtd">
<svg version="1.0" xmlns="http://www.w3.org/2000/svg"
 width="2500.000000pt" height="2500.000000pt" viewBox="0 0 2500.000000 2500.000000"
 preserveAspectRatio="xMidYMid meet">

<g transform="translate(0.000000,2500.000000) scale(0.100000,-0.100000)"
fill="#fff" stroke="none">
<path d="M17940 19840 c0 -5 -5 -10 -11 -10 -19 0 -131 -95 -214 -182 -150
-156 -261 -320 -380 -558 -88 -176 -93 -189 -190 -462 -79 -221 -115 -330
-166 -498 -17 -58 -50 -166 -74 -240 -44 -141 -89 -314 -84 -327 1 -5 41 -21
87 -36 147 -48 209 -84 309 -180 161 -156 261 -328 307 -532 39 -170 41 -222
41 -995 0 -741 0 -758 -23 -905 -74 -470 -213 -778 -654 -1447 -79 -119 -201
-306 -272 -415 -237 -363 -843 -1269 -933 -1394 -163 -228 -269 -416 -292
-519 -21 -91 -2 -229 30 -222 8 2 61 27 119 57 58 29 150 73 205 98 55 25 134
61 177 81 136 63 632 283 654 290 24 7 182 78 379 169 162 75 390 166 492 197
65 20 71 24 77 53 4 18 4 138 0 267 -3 129 -1 363 5 520 18 468 34 523 471
1665 11 28 55 138 99 246 102 250 149 371 254 651 47 124 110 286 140 360 31
73 83 201 116 283 33 83 84 211 114 285 30 74 88 221 129 325 91 230 289 725
403 1005 46 113 122 300 169 415 46 116 109 271 139 345 66 162 201 479 228
535 l20 40 -29 -28 -30 -28 -6 34 c-4 19 -12 39 -19 44 -40 29 -179 50 -204
31 -7 -6 -14 -4 -19 3 -5 8 -3 10 7 4 11 -6 12 -5 2 5 -10 11 -16 10 -33 -5
-11 -10 -20 -16 -20 -12 0 3 -16 -9 -36 -26 -130 -114 -217 -218 -312 -371
-34 -55 -62 -95 -62 -89 0 13 84 151 163 267 72 109 239 277 355 359 45 33
132 85 194 118 62 32 110 59 106 59 -4 0 -59 -20 -121 -45 -63 -24 -125 -46
-138 -49 -13 -2 -32 -7 -41 -11 -10 -4 -18 -3 -18 1 0 5 -38 10 -85 11 -78 1
-129 11 -180 33 -35 16 -189 53 -225 55 -64 3 -71 5 -65 15 3 6 3 10 -2 11 -4
0 -18 2 -30 3 -13 2 -23 0 -23 -4 0 -4 -19 -20 -42 -35 -52 -33 -181 -165
-253 -260 -29 -38 -88 -123 -129 -189 -87 -136 -100 -142 -25 -11 182 319 396
552 639 696 41 25 94 53 118 63 74 33 37 29 -55 -5 -48 -18 -92 -36 -98 -39
-15 -11 -249 -4 -271 8 -37 20 -114 52 -121 50 -9 -1 -40 9 -65 23 -25 13 -92
11 -107 -3 -11 -11 -12 -10 -7 0 6 10 -3 12 -38 9 -25 -2 -46 0 -46 5 0 4 4 8
8 8 5 0 15 11 22 25 7 14 19 25 27 25 7 0 13 7 13 16 0 20 -61 -23 -174 -122
-120 -105 -228 -227 -311 -352 -52 -78 -84 -111 -45 -46 99 164 204 299 340
435 129 129 233 205 385 283 28 14 45 26 39 26 -15 0 -71 -23 -172 -71 -80
-39 -85 -40 -155 -33 -40 3 -87 13 -106 20 -18 8 -37 11 -42 9 -4 -3 -27 6
-49 20 -29 18 -45 23 -54 16 -8 -7 -15 -5 -23 8 -8 13 -30 21 -65 26 -29 4
-62 15 -72 24 -11 9 -16 10 -12 4 5 -9 2 -11 -8 -7 -9 3 -13 11 -9 17 3 6 1 7
-5 3 -7 -4 -12 -2 -12 3 0 6 -4 11 -10 11 -5 0 -10 -4 -10 -10z"/>
<path d="M20475 18966 c-44 -18 -123 -53 -175 -78 -52 -25 -116 -53 -143 -63
-63 -24 -53 -31 16 -11 30 9 60 16 66 16 33 0 52 -107 57 -315 2 -93 4 -170 4
-170 1 0 3 -119 5 -265 2 -146 5 -272 6 -280 1 -8 -1 -63 -5 -122 -3 -58 -8
-171 -10 -250 -3 -78 -9 -154 -14 -168 -5 -14 -10 -58 -11 -99 -1 -41 -4 -77
-6 -81 -2 -4 -7 -70 -11 -146 -6 -138 -6 -139 20 -173 31 -41 34 -62 7 -37
-19 18 -41 15 -41 -5 0 -6 5 -7 12 -3 7 4 8 3 4 -5 -11 -17 -14 -111 -4 -111
5 0 5 -8 0 -17 -5 -10 -9 -65 -11 -123 -2 -104 -7 -173 -16 -240 -3 -19 -5
-59 -6 -88 -1 -28 -5 -55 -10 -58 -5 -3 -6 -11 -2 -17 11 -18 8 -54 -6 -70
-10 -12 -10 -20 1 -37 11 -17 11 -22 -1 -29 -9 -6 -11 -18 -7 -34 3 -14 2 -28
-3 -31 -4 -3 -12 -34 -15 -68 -4 -35 -15 -71 -23 -80 -10 -11 -12 -18 -5 -18
7 0 11 -11 10 -25 -1 -14 -6 -25 -10 -25 -3 0 -9 -12 -11 -27 -3 -23 -4 -21
-6 9 0 20 -6 40 -11 43 -6 4 -10 12 -8 18 1 7 -1 59 -5 117 -4 58 -9 291 -12
519 -2 228 -7 416 -10 419 -3 3 -5 -351 -5 -786 0 -669 2 -792 14 -792 8 0 24
-9 37 -20 l24 -20 -37 -35 c-37 -35 -38 -37 -38 -108 l1 -72 19 55 c11 30 17
62 14 72 -2 9 6 29 20 44 l24 29 11 -40 c18 -70 -22 -165 -71 -165 -15 0 -18
-9 -18 -60 0 -32 -2 -135 -4 -227 -4 -127 -9 -3354 -6 -3662 0 -46 2 -52 13
-38 6 9 73 42 147 73 200 82 251 101 296 108 l41 7 1 2832 c1 1558 5 3335 8
3950 6 954 5 1117 -7 1117 -8 0 -50 -15 -94 -34z m-189 -3561 c2 -20 -3 -25
-23 -25 -35 0 -93 -62 -93 -100 0 -47 20 -78 65 -99 64 -30 65 -61 3 -61 -34
0 -96 42 -113 76 -20 42 -19 117 1 157 26 50 67 74 129 76 25 1 30 -3 31 -24z
m5 -89 c-7 -8 -13 -25 -14 -38 -1 -13 -12 -37 -25 -53 l-23 -29 -21 21 -20 21
28 25 c58 51 77 67 82 67 2 0 -1 -6 -7 -14z"/>
<path d="M19840 18820 c-9 -6 -10 -10 -3 -10 6 0 15 5 18 10 8 12 4 12 -15 0z"/>
<path d="M19990 18451 c-37 -14 -61 -41 -92 -101 -19 -36 -39 -74 -45 -85 -7
-11 -23 -45 -36 -75 -14 -30 -33 -75 -44 -100 -39 -87 -133 -369 -133 -396 0
-6 -7 -17 -15 -24 -8 -7 -15 -20 -15 -29 0 -10 -14 -44 -31 -77 -21 -42 -29
-67 -25 -88 4 -21 2 -27 -7 -23 -9 3 -20 -11 -33 -41 -10 -26 -19 -49 -19 -53
0 -3 -7 -21 -16 -40 -9 -19 -31 -65 -49 -104 -18 -38 -36 -77 -41 -85 -24 -41
-77 -159 -83 -185 -4 -16 -16 -49 -27 -72 -11 -24 -22 -58 -26 -75 -4 -18 -12
-39 -20 -46 -7 -7 -13 -21 -13 -31 0 -22 -29 -81 -40 -81 -4 0 -11 -17 -15
-37 -3 -21 -12 -47 -19 -58 -7 -11 -19 -45 -27 -75 -7 -30 -20 -65 -27 -78 -8
-12 -12 -25 -9 -29 3 -3 0 -12 -8 -20 -8 -8 -15 -23 -15 -34 0 -10 -4 -19 -9
-19 -5 0 -13 -15 -16 -32 -8 -35 -45 -111 -57 -116 -5 -2 -8 -14 -8 -27 0 -12
-7 -28 -15 -35 -8 -7 -15 -20 -15 -29 0 -9 -6 -25 -14 -36 -7 -11 -17 -34 -20
-52 -4 -17 -13 -34 -20 -36 -8 -3 -17 -26 -20 -50 -4 -25 -14 -51 -22 -57 -8
-7 -17 -30 -20 -51 -4 -22 -11 -39 -16 -39 -5 0 -7 -4 -4 -9 4 -5 -3 -7 -14
-4 -15 4 -20 0 -20 -15 0 -11 -7 -25 -15 -32 -8 -7 -15 -19 -15 -27 0 -8 -4
-11 -10 -8 -6 4 -10 -10 -10 -34 0 -27 -6 -46 -19 -58 -13 -12 -21 -39 -26
-86 -4 -37 -11 -70 -16 -73 -5 -3 -9 -15 -9 -27 0 -32 -33 -121 -51 -140 -9
-8 -22 -29 -29 -46 -7 -17 -16 -31 -21 -31 -5 0 -9 -9 -9 -19 0 -11 -6 -26
-12 -33 -19 -21 -33 -44 -84 -147 -25 -52 -52 -100 -58 -107 -7 -6 -20 -34
-30 -60 -23 -64 -29 -78 -60 -145 -14 -31 -26 -68 -26 -83 0 -15 -10 -48 -21
-74 -12 -25 -22 -58 -23 -72 0 -14 -9 -32 -18 -41 -20 -18 -128 -227 -128
-246 0 -7 -3 -13 -8 -13 -8 0 -29 -44 -48 -103 -23 -73 -60 -170 -93 -239 -17
-37 -40 -93 -52 -125 -12 -32 -25 -62 -30 -68 -5 -5 -9 -17 -9 -27 0 -10 -4
-18 -10 -18 -5 0 -10 -7 -10 -16 0 -8 -5 -12 -11 -9 -6 4 -9 1 -8 -6 4 -19
-24 -109 -33 -109 -4 0 -8 -13 -8 -28 0 -43 -30 -122 -46 -122 -13 0 -19 -20
-15 -44 1 -5 -5 -6 -14 -2 -9 3 -15 1 -14 -7 1 -6 1 -23 -1 -37 -1 -22 -2 -23
-9 -6 -10 26 -16 14 -34 -74 -25 -121 -27 -140 -17 -140 6 0 10 17 10 38 1 20
7 51 15 67 l13 30 1 -47 c1 -26 -3 -49 -8 -52 -4 -3 -12 -42 -15 -86 -7 -79
-24 -101 -28 -37 -1 18 -5 -22 -8 -88 -9 -149 -12 -1317 -4 -1365 l6 -36 86
42 c72 34 219 101 399 180 17 8 71 29 120 48 48 19 144 60 213 91 149 68 528
236 621 275 76 32 78 33 308 139 96 44 176 79 178 77 2 -2 5 -344 6 -760 1
-416 4 -756 6 -756 9 0 242 91 304 119 52 24 83 31 129 31 l60 0 -6 28 c-4 15
-7 1630 -9 3589 -1 2208 -6 3562 -11 3560 -6 -2 -29 -57 -52 -123 -23 -65 -62
-162 -86 -214 -77 -162 -121 -283 -121 -325 0 -24 10 -56 23 -80 22 -37 22
-39 3 -22 -20 17 -20 17 -28 -25 -4 -24 -9 -95 -10 -158 -2 -63 -7 -139 -10
-168 -4 -29 -8 -101 -11 -160 -2 -59 -7 -134 -10 -167 -4 -33 -5 -127 -4 -210
4 -272 4 -309 -4 -375 -11 -97 -12 -103 -21 -124 -5 -12 -3 -21 6 -27 8 -5 9
-9 2 -9 -14 0 -44 -86 -36 -106 4 -10 -2 -17 -16 -21 -17 -4 -22 -12 -19 -32
1 -14 -1 -31 -5 -37 -3 -6 -6 -35 -6 -65 0 -30 -5 -81 -10 -114 l-10 -60 3 68
c3 63 -3 82 -20 56 -10 -16 -16 -719 -6 -719 4 0 24 13 43 30 36 29 37 29 54
10 16 -18 14 -21 -44 -84 -55 -59 -61 -70 -61 -109 0 -37 7 -51 50 -102 61
-72 76 -115 61 -170 -16 -58 -25 -68 -51 -60 -17 5 -20 12 -15 28 3 12 9 40
11 62 5 34 1 45 -25 75 l-30 35 -1 -50 c0 -38 3 -46 12 -37 20 20 28 14 28
-20 0 -18 -9 -41 -19 -52 -19 -20 -20 -43 -26 -381 -3 -198 -8 -410 -11 -472
l-6 -112 -56 -27 c-32 -14 -113 -51 -182 -81 -69 -30 -225 -104 -348 -164
-122 -60 -233 -109 -245 -109 -51 0 -94 93 -117 250 -19 127 -8 448 18 570 21
99 91 320 116 368 8 15 37 95 66 177 28 83 85 234 126 337 41 103 74 190 74
193 0 4 34 92 76 197 41 105 93 241 114 302 46 134 74 207 134 348 25 59 54
138 66 175 11 38 38 113 60 168 21 55 48 138 60 185 11 47 30 97 40 111 19 27
19 27 -3 33 -16 4 -28 -1 -43 -20 -16 -19 -23 -22 -26 -13 -3 8 -1 22 3 31 6
10 5 19 -1 23 -6 4 -8 11 -5 16 4 5 -1 9 -10 9 -8 0 -18 -7 -21 -15 -4 -8 -12
-15 -20 -15 -10 0 -12 5 -5 18 17 30 30 82 22 82 -5 0 -16 -26 -25 -57 -10
-32 -27 -85 -38 -118 -10 -33 -27 -84 -36 -112 -9 -29 -22 -53 -29 -53 -12 0
-17 -11 -28 -67 -4 -18 -10 -33 -15 -33 -4 0 -12 -12 -18 -27 -34 -94 -109
-276 -132 -323 -50 -101 -69 -148 -104 -252 -18 -57 -48 -134 -66 -173 -33
-74 -137 -345 -165 -430 -9 -27 -36 -90 -60 -140 -24 -49 -61 -142 -83 -205
-22 -63 -68 -182 -102 -265 -34 -82 -81 -199 -104 -260 -24 -60 -73 -180 -109
-265 -163 -387 -177 -470 -177 -1112 0 -252 2 -458 4 -458 3 0 25 13 49 30 68
46 513 256 852 402 77 33 165 73 195 87 104 52 268 114 284 108 11 -4 16 -19
16 -46 0 -50 -4 -53 -180 -127 -74 -31 -155 -65 -180 -76 -89 -40 -327 -151
-450 -210 -69 -33 -145 -69 -170 -80 -106 -48 -130 -58 -136 -58 -3 0 -29 -11
-57 -24 -29 -13 -90 -40 -137 -61 -47 -20 -93 -41 -103 -47 -11 -5 -21 -7 -23
-5 -3 2 -12 44 -20 93 -13 75 -15 158 -11 524 3 239 10 471 16 515 33 230 85
399 249 805 39 96 98 249 132 340 34 91 81 212 105 270 24 58 84 209 134 335
50 127 127 322 172 435 98 244 246 627 326 840 29 79 169 434 230 585 24 61
76 191 115 290 101 256 286 718 348 865 29 69 71 172 95 230 23 58 54 129 69
157 14 29 23 59 20 67 -7 18 -54 35 -74 27z m-393 -3013 c-3 -8 -6 -5 -6 6 -1
11 2 17 5 13 3 -3 4 -12 1 -19z m72 -755 c25 -30 36 -50 29 -54 -6 -4 -7 -12
-3 -19 12 -19 -24 4 -74 48 -40 34 -43 40 -30 55 22 25 34 21 78 -30z"/>
<path d="M13920 18265 c-11 -13 -10 -14 4 -9 9 3 16 10 16 15 0 13 -6 11 -20
-6z"/>
<path d="M13795 18202 c-242 -140 -354 -229 -595 -471 -235 -236 -409 -488
-530 -769 -113 -263 -187 -518 -205 -707 l-7 -71 63 -33 c100 -52 237 -139
317 -202 49 -39 92 -63 129 -74 65 -19 217 -93 283 -138 243 -166 386 -427
430 -787 9 -77 28 -516 30 -696 0 -37 3 -43 28 -49 22 -5 57 -25 135 -76 9 -7
-80 -158 -146 -247 -24 -33 -31 -53 -31 -85 9 -738 -3 -3519 -16 -3712 -12
-177 -43 -367 -87 -520 -95 -334 -357 -804 -588 -1055 -109 -118 -111 -125
-15 -43 121 102 144 114 196 103 21 -5 107 -10 189 -10 201 0 389 -15 563 -45
155 -27 251 -31 301 -14 26 9 30 15 24 33 -10 29 -11 1989 -1 2216 9 197 15
247 54 407 52 216 134 417 248 608 40 66 87 147 106 180 32 58 174 284 466
745 229 362 421 658 709 1095 95 143 185 283 200 310 16 28 65 106 111 175
129 198 179 280 215 355 l34 70 3 520 c2 321 -1 558 -8 619 -16 156 -64 242
-162 290 -88 44 -184 32 -344 -44 -262 -124 -397 -265 -481 -507 l-27 -78 -3
-555 c-2 -305 -6 -565 -8 -578 -4 -18 -12 -23 -29 -20 -13 1 -30 -3 -38 -9 -7
-7 -52 -28 -98 -48 -47 -19 -98 -42 -115 -50 -44 -21 -313 -135 -320 -135 -6
0 -210 -89 -369 -162 -61 -27 -115 -57 -121 -65 -20 -28 -25 106 -26 717 -1
630 1 679 37 855 60 297 142 505 305 777 156 259 270 413 422 566 219 222 411
365 707 527 47 26 76 44 65 40 -11 -4 -27 -8 -35 -10 -9 -2 -33 -12 -53 -24
-20 -11 -37 -17 -37 -13 0 4 -4 1 -9 -6 -5 -8 -20 -15 -34 -15 -14 -1 -24 -5
-22 -8 2 -3 -21 -17 -51 -32 -29 -15 -54 -22 -54 -16 0 5 -5 7 -10 4 -6 -4 -7
-11 -3 -18 3 -6 -7 -1 -24 11 -17 12 -40 20 -52 17 -11 -2 -21 0 -21 6 0 5
-11 9 -25 9 -23 0 -74 18 -85 30 -3 3 -24 11 -46 18 -23 7 -47 19 -54 27 -7 8
-21 15 -31 15 -24 0 -67 19 -106 48 -18 13 -37 21 -42 18 -5 -4 -29 1 -52 10
-33 14 -46 15 -60 6 -12 -8 -19 -8 -19 -2 0 5 -10 10 -22 10 -21 0 -21 2 7 19
40 26 82 60 74 61 -4 0 -38 -19 -75 -41 -336 -204 -639 -490 -879 -829 -75
-107 -89 -124 -55 -65 100 171 253 367 419 538 286 295 591 499 964 647 59 23
106 44 104 46 -2 2 -24 -3 -48 -12 -24 -9 -53 -17 -64 -19 -28 -4 -104 -31
-220 -77 -95 -38 -106 -40 -210 -41 -156 -1 -184 2 -206 24 -10 10 -28 19 -40
19 -11 0 -29 10 -40 23 -16 19 -18 19 -19 5 0 -23 -6 -23 -32 2 -12 11 -30 20
-39 20 -10 0 -38 9 -63 20 -25 10 -46 15 -46 10 0 -6 -5 -10 -11 -10 -5 0 -8
4 -4 9 3 6 -7 6 -27 0 -50 -14 -57 -9 -15 10 20 10 35 20 32 23 -3 3 24 24 60
48 115 75 75 59 -98 -39 -148 -83 -351 -237 -491 -371 -189 -182 -294 -305
-423 -500 -91 -136 -108 -157 -63 -75 117 215 338 486 569 699 242 224 590
440 844 526 37 13 66 25 64 27 -7 6 -129 -26 -202 -53 -38 -14 -102 -38 -142
-52 -40 -14 -70 -29 -67 -33 3 -5 -7 -5 -21 1 -20 8 -27 7 -31 -5 -8 -20 -24
-9 -25 18 0 12 -3 17 -5 11 -5 -12 -52 -7 -71 9 -9 6 -13 6 -13 -2 0 -7 -5 -9
-10 -6 -6 4 -8 10 -5 15 3 4 -8 10 -23 13 -77 15 -122 30 -122 39 0 7 -5 6
-14 -1 -10 -9 -16 -8 -26 4 -7 8 -22 15 -34 14 -38 -3 -57 1 -51 11 3 6 -3 10
-14 10 -11 0 -23 5 -27 11 -3 6 -17 8 -31 4 -17 -4 -23 -2 -21 7 1 7 -3 23
-10 36 -11 20 -10 23 12 33 14 7 27 18 30 25 3 8 4 14 3 14 -1 0 -47 -26 -102
-58z m45 -51 c0 -5 -7 -12 -16 -15 -14 -5 -15 -4 -4 9 14 17 20 19 20 6z
m1630 -943 c0 -6 -6 -5 -15 2 -8 7 -15 14 -15 16 0 2 7 1 15 -2 8 -4 15 -11
15 -16z"/>
<path d="M16503 17433 c-18 -2 -33 -8 -33 -13 0 -4 8 -6 18 -3 28 7 71 -14 84
-42 11 -24 56 -44 82 -37 5 2 21 -8 35 -22 14 -13 45 -34 68 -46 84 -43 227
-191 282 -291 11 -20 29 -74 41 -120 12 -46 25 -88 29 -94 12 -15 30 -112 36
-190 6 -80 6 -647 -1 -745 -2 -36 -4 -74 -3 -85 4 -59 -11 -185 -22 -185 -5 0
-9 -38 -9 -85 0 -47 -7 -148 -15 -223 -8 -75 -14 -146 -14 -157 0 -11 -7 -47
-15 -80 -9 -34 -13 -76 -9 -97 4 -25 2 -38 -6 -38 -6 0 -11 6 -11 13 0 6 -2
110 -3 229 -2 120 -6 221 -10 225 -4 3 -7 -18 -8 -48 -1 -110 -9 -225 -18
-249 -5 -14 -12 -68 -16 -120 -19 -295 -112 -563 -292 -840 -30 -47 -118 -182
-196 -300 -77 -118 -176 -271 -220 -340 -104 -164 -196 -304 -462 -707 -650
-983 -694 -1052 -825 -1308 -147 -285 -154 -332 -144 -963 l7 -443 21 20 c11
11 64 41 116 68 111 56 111 56 295 134 77 33 187 82 245 109 124 57 627 278
785 345 61 25 164 69 230 97 66 28 176 75 245 105 169 75 535 228 640 268 l84
33 -3 253 c-1 140 -4 255 -6 257 -6 7 -291 -106 -376 -149 -31 -15 -116 -53
-190 -85 -141 -59 -426 -183 -494 -214 -22 -10 -80 -35 -130 -56 -92 -37 -108
-45 -390 -176 -88 -42 -227 -105 -310 -142 -82 -37 -157 -72 -165 -77 -48 -30
-65 -23 -90 36 -47 109 -61 219 -39 300 10 38 65 164 92 212 64 117 290 464
527 813 62 91 141 210 176 265 34 55 74 111 88 124 14 14 26 29 26 33 0 11 53
89 73 110 8 7 22 30 31 50 10 20 33 54 52 76 19 22 34 44 34 48 0 19 112 197
416 659 427 652 523 858 608 1315 14 74 30 190 35 257 14 156 14 1087 1 1303
-17 265 -67 460 -160 626 -105 185 -327 346 -529 384 -51 10 -220 11 -288 3z
m538 -2563 c5 0 9 -7 9 -15 0 -15 -20 -22 -20 -7 0 4 -2 16 -4 27 -2 11 -1 14
1 8 3 -7 9 -13 14 -13z m-21 -20 c0 -5 -5 -10 -11 -10 -5 0 -7 5 -4 10 3 6 8
10 11 10 2 0 4 -4 4 -10z m30 -44 c0 -3 -4 -8 -10 -11 -5 -3 -10 -1 -10 4 0 6
5 11 10 11 6 0 10 -2 10 -4z m-47 -113 c-2 -37 -8 -70 -13 -73 -4 -3 -13 -32
-19 -65 -6 -33 -15 -61 -20 -63 -5 -2 -6 -13 -3 -25 5 -20 4 -20 -11 -8 -15
12 -17 10 -17 -23 0 -39 -26 -90 -41 -80 -5 3 -9 10 -9 15 0 6 4 7 10 4 5 -3
7 0 4 9 -3 8 1 25 10 38 9 12 16 28 16 35 0 6 5 24 12 40 6 15 10 34 9 41 -1
7 3 28 8 45 6 18 11 34 11 37 -1 3 9 32 20 64 11 33 20 69 20 80 0 15 3 17 8
8 5 -7 7 -43 5 -79z m27 47 c0 -22 -4 -40 -9 -40 -6 0 -9 18 -8 40 1 22 5 40
9 40 4 0 8 -18 8 -40z m-164 -414 c0 -13 -4 -22 -8 -19 -5 2 -8 -4 -8 -13 0
-10 -3 -14 -6 -11 -6 6 14 67 21 67 2 0 2 -11 1 -24z m-42 -123 c14 -15 24
-29 22 -31 -6 -5 -56 40 -56 50 0 14 8 9 34 -19z"/>
<path d="M16351 17408 c-29 -6 -40 -13 -33 -20 11 -11 105 5 132 22 20 13 -38
12 -99 -2z"/>
<path d="M16211 17369 c-13 -5 -21 -12 -18 -15 8 -9 67 6 67 17 0 11 -18 11
-49 -2z"/>
<path d="M16055 17320 c-3 -5 1 -10 9 -10 8 0 18 5 21 10 3 6 -1 10 -9 10 -8
0 -18 -4 -21 -10z"/>
<path d="M15936 17271 c-4 -5 3 -7 14 -4 23 6 26 13 6 13 -8 0 -17 -4 -20 -9z"/>
<path d="M15708 17174 c-16 -8 -28 -17 -28 -19 0 -10 16 -4 40 15 30 23 25 25
-12 4z"/>
<path d="M16050 16933 c-14 -3 -29 -9 -34 -14 -6 -5 -18 -9 -28 -9 -13 0 -18
-8 -18 -25 0 -22 -4 -25 -34 -25 -19 0 -38 5 -41 10 -12 19 -27 10 -21 -13 7
-30 -25 -53 -52 -36 -20 13 -47 5 -163 -43 -46 -20 -55 -27 -48 -40 13 -23
-14 -42 -51 -34 -40 8 -67 -4 -167 -72 -47 -31 -92 -61 -101 -67 -9 -5 -22
-16 -30 -22 -7 -7 -17 -13 -22 -13 -5 0 -35 -25 -67 -55 -32 -31 -77 -70 -100
-88 -47 -36 -53 -47 -23 -47 24 0 26 -14 4 -32 -8 -7 -23 -21 -32 -30 -9 -10
-24 -18 -34 -18 -28 0 -67 -22 -73 -42 -4 -10 -13 -18 -21 -18 -8 0 -19 -10
-24 -22 -6 -13 -26 -45 -46 -73 -33 -46 -35 -53 -29 -101 5 -41 3 -53 -9 -57
-9 -4 -16 -15 -16 -25 0 -10 -8 -27 -18 -38 -11 -11 -24 -33 -29 -49 l-10 -30
-18 38 c-18 35 -35 49 -35 27 0 -6 -11 -28 -25 -48 -25 -38 -63 -134 -72 -182
-2 -13 -10 -38 -18 -55 -7 -16 -16 -44 -20 -62 -3 -17 -18 -44 -32 -59 -20
-22 -28 -46 -39 -123 -7 -53 -14 -100 -14 -104 0 -5 -5 -5 -11 -1 -8 5 -10 -1
-5 -19 3 -14 2 -27 -3 -29 -5 -2 -19 -77 -30 -168 -12 -91 -25 -185 -29 -210
l-9 -45 -7 35 c-4 19 -11 55 -15 80 -6 28 -9 -130 -10 -416 l-1 -461 58 28
c118 59 328 149 348 149 11 0 25 -5 32 -12 6 -6 13 -10 15 -7 1 2 -1 204 -5
449 -15 847 13 1023 222 1388 84 147 150 233 285 368 170 170 280 247 540 375
373 183 596 215 798 113 63 -33 60 -23 -5 14 -104 59 -171 72 -362 71 -94 -1
-182 -4 -196 -6z"/>
<path d="M20082 16790 c0 -19 2 -27 5 -17 2 9 2 25 0 35 -3 9 -5 1 -5 -18z"/>
<path d="M16300 16794 c-79 -15 -231 -59 -296 -85 -72 -28 -192 -88 -149 -74
11 4 64 20 117 35 54 16 103 32 109 36 7 4 10 3 7 -2 -4 -5 26 -10 66 -10 96
-2 171 -40 250 -127 74 -81 71 -77 136 -222 57 -128 72 -490 31 -765 -24 -156
-31 -211 -37 -285 -4 -44 -12 -89 -19 -100 -7 -11 -16 -69 -20 -130 -8 -131
-32 -344 -45 -400 -6 -26 -5 -44 2 -52 6 -7 7 -13 3 -13 -3 0 3 -15 14 -34 26
-42 26 -44 -4 -41 -20 3 -25 -1 -25 -20 0 -31 -35 -107 -45 -97 -4 4 -5 -2 -1
-13 4 -11 4 -16 0 -12 -9 9 -35 -13 -29 -24 3 -4 -5 -15 -19 -24 -13 -9 -26
-25 -29 -35 -3 -11 -11 -20 -19 -20 -11 0 -10 2 1 9 7 5 11 13 8 18 -4 6 2 19
13 30 10 12 16 24 13 27 -4 3 -1 6 6 6 8 0 11 7 7 15 -3 8 -1 15 3 15 5 0 12
8 16 18 11 26 24 72 21 72 -2 0 -24 -35 -50 -77 -25 -43 -64 -103 -85 -133
-53 -76 -171 -265 -171 -274 0 -4 -14 -22 -31 -39 -18 -17 -27 -33 -21 -35 6
-2 -3 -18 -21 -36 -18 -17 -53 -63 -78 -101 -25 -39 -104 -158 -174 -265 -71
-107 -140 -212 -154 -234 -14 -21 -30 -46 -36 -56 -5 -9 -44 -68 -85 -131 -42
-63 -112 -170 -155 -239 -44 -68 -101 -156 -128 -195 -157 -232 -267 -406
-267 -423 0 -6 -4 -12 -9 -14 -5 -1 -40 -55 -78 -118 -38 -63 -91 -149 -117
-190 -44 -70 -94 -158 -202 -357 -43 -78 -93 -204 -135 -338 -32 -101 -57
-253 -69 -410 -9 -128 -20 -1635 -12 -1635 2 0 36 20 78 44 85 50 428 203 854
381 102 42 250 105 330 140 150 66 595 257 710 305 36 16 108 46 160 68 52 22
217 93 365 157 315 137 562 236 663 266 l42 12 0 280 c0 266 -1 279 -17 265
-10 -9 -52 -30 -93 -48 -41 -18 -93 -40 -115 -50 -22 -10 -96 -41 -165 -70
-145 -60 -163 -69 -330 -145 -69 -32 -181 -81 -250 -110 -69 -28 -143 -61
-165 -72 -22 -11 -94 -41 -160 -67 -164 -65 -266 -106 -284 -117 -9 -5 -97
-43 -196 -85 -99 -42 -256 -113 -350 -159 -93 -46 -199 -95 -235 -110 -36 -15
-99 -43 -140 -62 -41 -20 -95 -41 -120 -48 -25 -7 -52 -16 -61 -19 -11 -5 -19
-1 -24 11 -4 10 -11 214 -17 453 -18 829 -8 863 493 1640 91 140 179 280 197
310 18 30 41 66 51 80 11 14 96 142 189 285 94 143 236 359 316 480 80 121
164 252 187 290 22 39 96 153 164 255 350 528 403 625 475 869 61 206 65 259
65 951 0 612 -1 627 -23 720 -39 166 -134 328 -238 409 -71 54 -176 93 -263
96 -42 2 -87 1 -101 -1z m-194 -2821 c-8 -16 -28 -44 -46 -63 l-31 -35 16 33
c8 17 20 32 25 32 6 0 10 11 10 24 0 22 10 33 33 35 4 1 1 -11 -7 -26z"/>
<path d="M10062 16573 c-15 -15 -32 -17 -32 -4 0 5 -9 7 -20 4 -11 -3 -20 -9
-20 -14 0 -5 -7 -9 -15 -9 -33 0 -198 -112 -361 -245 -330 -270 -606 -615
-763 -958 -68 -147 -155 -418 -192 -597 -8 -36 -39 -243 -39 -257 0 -1 46 -26
102 -54 145 -73 298 -171 321 -206 4 -6 37 -21 74 -33 131 -42 250 -114 364
-218 158 -145 248 -317 297 -567 39 -196 44 -332 40 -1100 -5 -694 -6 -736
-27 -855 -34 -196 -91 -393 -152 -528 -16 -34 -29 -65 -29 -68 0 -3 -22 -50
-49 -103 -110 -218 -380 -645 -730 -1157 -61 -88 -157 -237 -214 -330 -100
-163 -530 -808 -567 -849 -48 -55 -205 -303 -235 -373 -41 -95 -61 -208 -49
-289 4 -32 7 -61 6 -65 -3 -14 7 -9 57 27 28 20 182 94 343 165 161 72 316
141 344 155 27 13 129 58 225 98 96 41 298 131 449 199 151 69 320 144 375
168 55 23 150 65 210 92 114 52 177 68 189 49 4 -6 7 -274 6 -596 0 -542 4
-633 25 -566 3 10 22 34 43 54 20 19 54 53 75 75 32 34 50 43 109 57 189 43
321 41 412 -6 38 -20 41 -20 53 -3 7 10 13 21 13 26 0 16 36 7 90 -24 88 -50
121 -65 189 -87 35 -11 69 -25 76 -31 7 -6 55 -20 106 -31 166 -37 290 -9 709
159 99 39 323 155 285 147 -16 -4 -49 -15 -72 -26 -24 -11 -48 -17 -53 -14 -5
3 -12 1 -15 -5 -27 -43 -323 -145 -485 -167 -157 -21 -380 -13 -465 16 l-60
21 50 -5 c28 -3 82 -9 120 -15 102 -16 245 -14 364 4 118 19 150 32 51 22
-233 -24 -401 -15 -558 30 -155 45 -315 137 -408 236 -118 124 -237 358 -279
545 -38 168 -45 289 -54 863 -11 774 -4 3939 10 4070 34 335 191 764 400 1098
171 272 276 412 422 561 264 268 482 432 779 586 79 41 138 75 132 75 -19 0
-169 -62 -176 -74 -4 -6 -8 -7 -8 -2 0 5 -7 3 -15 -4 -8 -6 -33 -18 -57 -25
-24 -7 -51 -16 -60 -20 -11 -4 -18 -3 -18 5 0 6 5 8 12 4 6 -4 8 -3 4 4 -3 6
-30 18 -59 28 -28 9 -55 22 -59 27 -4 7 -11 7 -21 -1 -11 -10 -17 -9 -27 3 -7
8 -18 15 -26 15 -7 0 -20 10 -28 21 -11 16 -21 20 -40 15 -19 -5 -28 -1 -36
14 -8 14 -21 20 -45 20 -20 0 -43 4 -53 8 -9 5 -32 16 -51 26 -24 12 -37 13
-46 6 -7 -6 -19 -8 -26 -5 -30 11 -78 12 -83 1 -2 -6 -5 -3 -5 7 -1 9 6 17 14
17 8 0 15 5 15 10 0 6 9 10 20 10 11 0 20 3 20 8 0 4 43 31 95 61 52 29 95 55
95 57 0 11 -120 -47 -215 -104 -164 -98 -258 -165 -404 -286 -188 -155 -362
-344 -517 -562 -46 -64 -72 -88 -39 -36 80 125 263 358 380 481 108 113 339
307 476 399 137 92 373 213 519 266 52 19 87 35 77 35 -25 1 -312 -94 -361
-118 -21 -11 -43 -18 -49 -14 -6 4 -7 1 -2 -7 6 -10 3 -12 -13 -8 -12 4 -26 0
-33 -8 -15 -18 -48 -18 -55 -1 -3 9 -21 13 -54 11 -28 -1 -53 3 -57 9 -3 6 -1
7 5 3 7 -4 12 -1 12 9 0 14 -8 16 -45 13 -25 -2 -46 1 -48 7 -2 5 -14 10 -28
10 -13 0 -23 5 -22 12 3 12 -47 35 -87 39 -54 6 -90 17 -90 26 0 5 -20 8 -45
7 -24 -2 -47 0 -51 4 -4 4 -18 7 -31 7 -12 0 -23 2 -23 5 0 11 35 45 47 45 7
0 13 4 13 8 0 5 12 14 26 21 15 6 24 14 22 16 -11 11 -234 -122 -368 -220
-253 -183 -505 -437 -698 -705 -111 -154 -124 -163 -29 -20 159 238 389 496
602 674 271 227 453 340 735 458 64 26 104 47 90 47 -14 0 -41 -6 -60 -13
-207 -80 -353 -129 -345 -116 5 9 -33 26 -49 22 -17 -5 -101 32 -117 51 -9 11
-21 17 -27 13 -6 -3 -17 1 -25 9 -9 8 -25 15 -36 15 -12 0 -30 9 -40 19 -12
12 -27 17 -40 14 -12 -3 -21 -1 -21 4 0 6 -11 8 -25 5 -19 -3 -25 0 -25 13 0
11 -7 16 -22 14 -31 -3 -78 11 -78 23 0 5 -6 15 -13 22 -10 11 -15 10 -25 -1z
m523 -241 c-3 -3 -11 0 -18 7 -9 10 -8 11 6 5 10 -3 15 -9 12 -12z m-414
-1419 c-5 -10 -17 -27 -26 -38 -16 -19 -17 -19 -3 5 26 46 29 50 34 50 3 0 0
-8 -5 -17z"/>
<path d="M15645 16540 c-39 -26 -25 -26 17 0 18 11 29 20 23 20 -5 0 -23 -9
-40 -20z"/>
<path d="M15554 16484 c-18 -14 -18 -15 4 -4 12 6 22 13 22 15 0 8 -5 6 -26
-11z"/>
<path d="M15920 16301 c-19 -4 -81 -28 -137 -54 -56 -26 -106 -47 -112 -47 -5
0 -26 -9 -48 -19 -21 -11 -55 -26 -75 -35 -20 -9 -40 -21 -43 -26 -3 -6 -14
-10 -23 -10 -9 0 -30 -11 -46 -25 -16 -14 -35 -25 -41 -25 -7 0 -16 -19 -19
-43 -5 -35 -19 -55 -81 -119 -41 -43 -75 -84 -75 -93 0 -10 -5 -13 -12 -9 -7
5 -8 3 -3 -5 4 -7 -1 -22 -13 -34 -11 -12 -28 -40 -39 -62 -15 -33 -23 -39
-43 -37 -14 2 -22 1 -18 -3 4 -4 -2 -15 -13 -24 -11 -9 -21 -26 -22 -38 -1
-13 -5 -23 -9 -23 -4 0 -5 -7 -2 -15 3 -8 -1 -21 -9 -29 -8 -8 -17 -39 -20
-69 -7 -57 -30 -121 -47 -132 -5 -3 -10 -21 -10 -38 0 -18 -7 -57 -16 -87 -9
-30 -21 -80 -28 -110 -12 -55 -12 -55 -19 -21 -4 18 -7 48 -8 65 0 17 -5 40
-10 51 l-9 20 1 -20 c3 -50 -2 -86 -10 -81 -15 9 -21 -134 -24 -517 -1 -196
-2 -357 -1 -357 1 0 32 16 70 36 96 50 322 145 361 151 l33 6 0 459 c0 451 4
534 36 664 29 122 103 271 188 381 82 106 255 226 420 291 81 32 101 36 186
36 83 1 100 -2 133 -22 20 -13 37 -21 37 -18 0 10 -77 55 -107 62 -15 4 -34
12 -42 17 -16 13 -182 19 -231 8z"/>
<path d="M10695 16260 c-3 -5 -1 -10 4 -10 6 0 11 5 11 10 0 6 -2 10 -4 10 -3
0 -8 -4 -11 -10z"/>
<path d="M19448 15910 c-4 -8 -18 -53 -33 -100 -15 -47 -36 -103 -47 -125 -22
-45 -78 -190 -133 -345 -21 -58 -101 -267 -178 -465 -379 -975 -417 -1101
-417 -1360 1 -105 25 -353 39 -388 l11 -27 212 109 c319 164 452 223 517 230
l56 6 -1 1180 c-1 1073 -7 1337 -26 1285z"/>
<path d="M19537 15773 c-4 -7 -5 -45 -3 -85 3 -40 6 -91 6 -113 1 -32 3 -36
10 -20 5 11 9 14 9 8 1 -7 5 -13 10 -13 6 0 6 13 0 33 -5 18 -12 70 -16 117
-5 47 -12 80 -16 73z"/>
<path d="M12615 15744 c-178 -27 -426 -86 -413 -99 2 -2 41 5 87 16 109 25
268 49 331 49 40 0 48 -3 44 -15 -4 -10 0 -15 16 -15 13 0 19 -4 14 -11 -4 -6
1 -9 12 -7 22 3 118 -44 154 -76 14 -13 41 -34 60 -47 98 -67 190 -166 190
-204 0 -8 7 -18 15 -23 9 -4 17 -17 19 -28 3 -10 16 -44 29 -75 14 -30 26 -73
28 -95 1 -21 6 -44 11 -50 4 -6 6 -33 4 -60 -2 -27 2 -86 9 -131 6 -45 10
-105 8 -133 -1 -27 1 -50 6 -50 6 0 5 -14 -1 -32 -5 -18 -11 -80 -13 -138 -2
-84 -5 -104 -16 -102 -8 1 -5 -4 6 -14 19 -15 18 -15 -22 -13 -23 2 -45 0 -49
-4 -4 -4 12 -7 35 -7 47 0 85 -17 118 -52 18 -19 21 -33 14 -66 -1 -2 -17 5
-37 17 -20 12 -51 21 -72 20 -20 -1 -29 -3 -20 -6 16 -4 16 -6 4 -19 -19 -19
-26 -18 -26 4 -1 35 -17 -12 -24 -69 -7 -59 -5 -64 85 -155 l21 -21 -25 -28
-24 -28 -23 31 c-13 18 -27 32 -31 32 -12 0 -16 -33 -7 -58 5 -15 4 -21 -2
-17 -7 4 -10 -355 -11 -1062 0 -587 -4 -1495 -9 -2018 -9 -1022 -12 -1082 -65
-1281 -30 -116 -144 -363 -219 -480 -140 -215 -359 -450 -521 -560 -165 -113
-418 -226 -633 -284 -71 -20 -98 -22 -185 -17 -115 7 -163 20 -292 82 -99 48
-122 67 -188 152 -109 142 -172 340 -197 619 -8 81 -10 778 -8 2214 4 1927 5
2103 21 2195 22 127 51 246 89 360 95 287 335 637 616 896 236 219 606 403
879 440 110 15 211 0 311 -46 39 -19 72 -32 72 -30 0 11 -134 76 -195 95 -90
29 -246 35 -337 14 -35 -8 -81 -17 -103 -20 -115 -15 -341 -94 -445 -154 -8
-5 -42 -23 -75 -41 -33 -17 -69 -40 -81 -50 -11 -11 -24 -19 -28 -19 -8 0 -71
-45 -96 -69 -8 -8 -34 -23 -58 -33 -24 -11 -73 -49 -110 -84 -36 -35 -69 -64
-74 -64 -4 0 -8 -5 -8 -11 0 -6 -21 -31 -46 -57 -25 -26 -58 -63 -72 -82 -14
-19 -48 -57 -74 -84 -26 -26 -48 -52 -48 -57 0 -5 -5 -9 -11 -9 -14 0 -69 -52
-69 -66 0 -5 -15 -25 -34 -43 -22 -21 -32 -39 -29 -49 5 -11 3 -13 -7 -7 -8 5
-4 -8 9 -28 24 -39 22 -44 -9 -27 -16 8 -24 2 -54 -47 -20 -32 -36 -65 -36
-75 0 -9 -6 -21 -13 -25 -8 -4 -17 -24 -20 -44 -6 -38 -44 -145 -77 -214 -21
-45 -33 -75 -34 -90 -1 -5 -7 -26 -13 -45 -6 -19 -14 -56 -18 -82 -3 -26 -15
-69 -26 -95 -11 -26 -18 -55 -16 -65 3 -9 1 -18 -5 -20 -5 -2 -13 -64 -18
-138 -5 -74 -16 -167 -24 -207 -9 -40 -17 -90 -18 -113 -1 -26 -6 -40 -15 -40
-9 0 -13 15 -13 50 0 51 -11 64 -26 33 -5 -10 -10 -328 -12 -708 l-3 -689 26
24 c22 21 28 22 35 10 15 -24 12 -32 -27 -66 l-38 -33 0 -102 c0 -73 4 -103
13 -106 6 -3 12 -12 12 -21 0 -13 -2 -14 -9 -4 -5 9 -10 1 -15 -26 -3 -22 -5
-600 -3 -1284 3 -1320 3 -1292 51 -1517 23 -103 86 -249 150 -346 72 -107 211
-239 302 -287 149 -77 328 -117 524 -118 305 0 686 135 1028 365 322 216 471
356 693 649 47 61 198 312 244 405 111 222 156 319 157 342 1 13 4 29 8 34 8
13 19 53 58 210 15 59 20 102 37 288 13 144 15 504 15 2475 0 1506 -4 2338
-10 2396 -15 125 -44 252 -75 327 -99 235 -212 374 -375 458 -121 63 -203 83
-365 86 -77 2 -153 1 -170 -1z m728 -1208 c3 -8 -3 -34 -15 -58 -17 -35 -19
-47 -9 -72 10 -28 10 -29 -5 -14 -26 25 -31 114 -9 138 21 24 31 25 38 6z
m-2908 -3092 c1 -31 -3 -30 -42 8 -31 30 -32 33 -16 51 17 18 18 18 37 -9 11
-14 20 -37 21 -50z m-25 -210 c0 -8 -5 -12 -10 -9 -6 4 -8 11 -5 16 9 14 15
11 15 -7z"/>
<path d="M19582 15665 c0 -16 2 -22 5 -12 2 9 2 23 0 30 -3 6 -5 -1 -5 -18z"/>
<path d="M12100 15610 c-13 -9 -13 -10 0 -10 8 0 22 5 30 10 13 9 13 10 0 10
-8 0 -22 -5 -30 -10z"/>
<path d="M11917 15528 c-43 -22 -76 -43 -73 -45 3 -3 149 70 165 84 18 14 -27
-5 -92 -39z"/>
<path d="M11800 15465 c-14 -8 -20 -14 -14 -15 5 0 19 7 30 15 24 18 16 19
-16 0z"/>
<path d="M11458 15240 c-37 -28 -70 -55 -74 -62 -4 -6 28 15 70 47 67 51 83
65 73 65 -1 0 -33 -23 -69 -50z"/>
<path d="M11284 15093 c-45 -43 -71 -71 -60 -62 35 28 151 138 146 139 -3 0
-42 -35 -86 -77z"/>
<path d="M6206 15101 c-4 -5 3 -7 14 -4 23 6 26 13 6 13 -8 0 -17 -4 -20 -9z"/>
<path d="M12342 15094 c-198 -43 -515 -189 -642 -295 -31 -26 -13 -17 70 36
62 39 142 80 240 121 33 14 69 19 140 19 143 0 181 -6 225 -34 40 -25 118
-113 143 -161 7 -14 21 -34 31 -45 10 -11 25 -42 34 -70 9 -27 23 -69 31 -91
34 -94 59 -293 57 -464 -1 -175 -8 -247 -22 -256 -5 -3 -9 -10 -9 -15 0 -6 5
-7 10 -4 11 7 14 -8 3 -19 -4 -3 -8 -12 -10 -19 -18 -80 -22 -75 -17 21 3 71
2 102 -5 97 -6 -3 -11 -42 -11 -90 0 -46 -4 -106 -9 -132 -6 -28 -12 -766 -16
-1793 -5 -1691 -11 -2060 -35 -2184 -44 -226 -187 -447 -404 -623 -145 -117
-280 -183 -375 -183 -68 1 -205 34 -239 59 -73 51 -132 155 -156 273 -9 42
-18 148 -21 235 -9 284 -14 3814 -5 3978 13 245 54 389 166 584 84 144 136
212 216 282 204 175 440 268 603 236 55 -11 27 8 -42 29 -73 21 -276 26 -328
7 -22 -8 -51 -17 -65 -19 -26 -5 -49 -14 -160 -66 -36 -17 -74 -34 -85 -39
-84 -34 -156 -74 -191 -106 -23 -21 -58 -51 -78 -68 -21 -16 -58 -61 -83 -100
-46 -70 -57 -86 -116 -172 -68 -97 -71 -104 -52 -135 19 -33 14 -35 -22 -10
-15 9 -24 12 -20 6 4 -7 -1 -14 -13 -17 -12 -3 -20 -14 -20 -26 0 -12 -6 -24
-14 -27 -8 -3 -18 -19 -21 -36 -4 -17 -22 -45 -41 -63 -19 -19 -34 -40 -34
-49 0 -9 -4 -16 -8 -16 -5 0 -9 -6 -9 -12 -1 -14 -20 -70 -35 -104 -6 -12 -9
-30 -7 -40 1 -10 -1 -26 -4 -34 -21 -52 -27 -612 -27 -2377 0 -2112 -2 -2055
60 -2246 41 -125 98 -225 180 -311 115 -121 210 -160 385 -159 83 0 135 7 210
26 290 72 637 260 825 447 120 119 296 360 356 489 45 97 52 114 74 181 12 35
25 71 30 80 17 32 50 220 60 345 8 90 10 809 8 2360 l-4 2230 -21 86 c-51 207
-137 333 -288 424 -120 72 -248 91 -393 59z m423 -1114 c-3 -5 -11 -10 -16
-10 -6 0 -7 5 -4 10 3 6 11 10 16 10 6 0 7 -4 4 -10z m-3 -38 c10 -4 14 -12
10 -18 -5 -8 -13 -5 -26 7 -20 19 -14 23 16 11z m-1812 -1777 c-7 -9 -10 -19
-6 -22 4 -4 11 -1 16 7 6 8 10 10 10 4 0 -6 -9 -19 -20 -29 -11 -10 -20 -27
-20 -39 0 -15 -3 -17 -12 -8 -9 9 -9 15 0 24 17 17 15 29 -3 22 -8 -4 -15 -14
-16 -23 0 -9 -3 -11 -6 -4 -5 14 44 83 59 83 6 0 5 -7 -2 -15z m-43 -117 c-3
-8 -6 -5 -6 6 -1 11 2 17 5 13 3 -3 4 -12 1 -19z m38 -48 c3 -5 1 -10 -4 -10
-6 0 -11 5 -11 10 0 6 2 10 4 10 3 0 8 -4 11 -10z m-15 -35 c0 -5 -5 -3 -10 5
-5 8 -10 20 -10 25 0 6 5 3 10 -5 5 -8 10 -19 10 -25z m-3 -152 c-3 -10 -5 -2
-5 17 0 19 2 27 5 18 2 -10 2 -26 0 -35z"/>
<path d="M5990 15009 c-251 -121 -476 -290 -710 -535 -123 -129 -188 -211
-287 -359 -199 -296 -307 -601 -343 -965 -6 -58 -11 -352 -13 -654 l-2 -549
36 -21 c20 -12 78 -45 130 -75 52 -30 146 -89 209 -131 63 -42 162 -101 220
-132 58 -31 164 -93 235 -139 239 -154 456 -281 616 -364 85 -43 198 -111 217
-130 2 -2 -5 -16 -16 -32 -10 -15 -32 -48 -48 -73 -16 -25 -78 -115 -139 -200
-60 -86 -136 -196 -168 -245 -32 -50 -122 -187 -200 -305 -319 -484 -384 -584
-700 -1075 -128 -200 -233 -407 -282 -558 -82 -253 -94 -428 -95 -1362 0 -538
-2 -623 -15 -642 -34 -49 24 -100 245 -216 154 -81 512 -282 692 -388 91 -55
169 -99 172 -99 14 0 264 -157 289 -181 18 -18 27 -38 27 -59 0 -17 4 -40 10
-50 13 -24 167 -75 290 -95 56 -10 106 -24 122 -36 39 -28 76 -24 165 17 43
20 130 55 194 79 64 24 149 57 190 74 41 16 117 46 169 67 52 20 106 42 120
49 14 7 54 24 90 38 239 92 716 288 910 374 74 33 167 72 205 87 39 15 95 38
125 50 30 13 82 34 115 47 82 31 293 118 330 135 17 7 62 26 100 42 39 16 138
57 220 91 83 35 182 76 220 92 39 15 120 48 180 72 l110 43 -3 34 c-2 19 -4
143 -4 275 0 175 -2 214 -7 145 l-7 -95 -2 128 -2 127 -62 -31 c-35 -18 -92
-43 -128 -56 -36 -14 -126 -53 -200 -88 -125 -59 -299 -134 -580 -250 -191
-78 -322 -135 -371 -161 -26 -13 -52 -24 -57 -24 -6 0 -23 -5 -39 -12 -41 -16
-54 -19 -92 -21 -19 0 -28 -3 -21 -5 8 -3 -13 -13 -46 -23 -32 -10 -72 -30
-88 -44 -19 -16 -42 -25 -65 -26 -29 0 -32 -2 -16 -9 17 -7 17 -9 3 -9 -10 -1
-18 -5 -18 -10 0 -10 -78 -41 -103 -41 -9 0 -17 -4 -17 -9 0 -5 -24 -17 -52
-26 -29 -10 -62 -23 -73 -29 -11 -7 -38 -20 -60 -28 -22 -9 -92 -41 -156 -72
-64 -31 -122 -56 -128 -56 -7 0 -49 -17 -94 -39 -45 -21 -134 -55 -197 -75
-63 -21 -119 -41 -125 -46 -5 -4 -40 -24 -78 -44 -37 -20 -75 -40 -85 -46 -9
-5 -55 -23 -102 -40 -74 -28 -158 -60 -197 -77 -7 -3 -17 5 -22 18 l-9 24 -7
-27 c-4 -15 -3 -120 3 -235 5 -120 6 -218 1 -231 -5 -13 -6 -22 -2 -20 5 2 28
13 53 25 25 12 221 91 435 176 538 212 599 237 940 381 354 150 615 257 815
336 165 65 471 194 670 283 170 75 283 117 318 117 31 0 75 -26 70 -42 -4 -10
-32 -22 -143 -59 -87 -30 -178 -68 -275 -115 -47 -22 -97 -44 -113 -48 -27 -6
-125 -47 -159 -66 -10 -6 -64 -28 -120 -51 -57 -22 -116 -47 -133 -54 -92 -41
-177 -75 -230 -90 -33 -10 -64 -22 -70 -27 -5 -4 -15 -8 -21 -8 -7 0 -62 -23
-121 -51 -59 -28 -130 -58 -158 -66 -27 -8 -93 -35 -145 -60 -52 -25 -140 -63
-195 -85 -55 -21 -122 -50 -150 -62 -69 -33 -171 -76 -178 -76 -4 0 -31 -11
-61 -25 -30 -14 -57 -25 -60 -25 -3 0 -36 -14 -73 -31 -120 -55 -131 -59 -150
-59 -11 0 -23 -3 -27 -7 -4 -5 -11 -8 -14 -8 -4 0 -20 -5 -37 -12 -16 -6 -39
-15 -50 -19 -11 -4 -23 -6 -27 -6 -5 1 -8 -2 -8 -6 0 -5 -30 -20 -67 -34 -313
-119 -437 -169 -491 -198 -30 -16 -56 -29 -56 -27 -1 1 2 526 5 1167 5 1041 8
1174 23 1250 26 133 72 309 100 382 42 111 150 319 243 466 47 75 108 173 135
217 26 44 66 107 87 140 21 33 97 155 169 270 72 116 164 257 203 315 39 58
137 206 216 330 79 124 156 241 171 261 57 77 221 318 277 409 33 52 124 194
204 315 79 121 161 253 182 294 73 142 74 154 74 801 0 617 -2 640 -52 727
-22 37 -72 85 -98 93 -112 36 -134 37 -219 15 -150 -39 -297 -123 -410 -233
-97 -95 -153 -190 -188 -320 -20 -72 -21 -109 -25 -587 -2 -280 -6 -525 -9
-542 -4 -25 -11 -34 -32 -39 -15 -4 -52 -19 -82 -34 -30 -15 -95 -44 -145 -65
-156 -64 -326 -136 -440 -185 -111 -48 -388 -167 -414 -178 -11 -4 -13 3 -6
39 4 24 11 350 15 724 7 525 12 698 23 760 88 481 328 914 752 1354 205 212
438 387 671 502 69 34 123 63 120 66 -2 3 -14 -1 -26 -7 -12 -6 -29 -13 -38
-16 -89 -23 -149 -41 -161 -48 -13 -8 -33 12 -31 31 1 5 -12 11 -27 15 -87 21
-121 34 -145 54 -15 12 -45 25 -68 29 -25 4 -40 12 -40 21 0 8 -16 24 -35 35
-19 12 -32 25 -29 30 3 5 0 9 -5 9 -6 0 -11 -4 -11 -10 0 -5 -7 -7 -15 -4 -8
4 -15 12 -15 19 0 14 -22 25 -49 25 -9 0 -27 9 -40 21 -30 28 -37 19 -10 -15
20 -26 20 -28 4 -46 -10 -11 -22 -20 -28 -20 -5 0 -38 27 -74 60 -35 33 -71
60 -80 60 -9 0 -53 -22 -99 -50 -46 -27 -86 -50 -89 -50 -10 0 -233 -148 -300
-199 -217 -165 -417 -369 -560 -571 -50 -71 -64 -86 -35 -35 31 51 183 252
252 332 72 82 239 236 368 339 228 181 423 295 670 390 106 41 127 54 88 54
-26 0 -127 -35 -187 -66 -27 -13 -38 -15 -52 -5 -11 6 -19 7 -19 2 0 -5 -10
-7 -22 -3 -16 4 -19 2 -14 -9 4 -8 1 -6 -7 4 -9 11 -28 17 -53 17 -45 0 -187
45 -226 72 -14 10 -34 18 -45 18 -10 0 -29 9 -43 20 -14 11 -33 20 -44 20 -10
0 -35 10 -55 22 -19 12 -45 21 -57 20 -12 -2 -24 4 -28 13 -7 18 -27 11 -22
-8 1 -7 1 -9 -1 -4 -7 10 -31 9 -36 -3 -3 -6 -4 -5 -3 2 1 7 22 23 47 36 54
28 76 48 37 33 -15 -5 -35 -14 -45 -20 -10 -5 -71 -35 -136 -68 -82 -40 -167
-94 -275 -175 -252 -188 -441 -376 -608 -603 -76 -105 -98 -129 -57 -65 314
496 773 874 1305 1075 79 30 139 55 135 55 -14 0 -199 -49 -222 -59 -97 -43
-197 -61 -215 -41 -9 11 -90 40 -109 40 -10 0 -21 7 -25 15 -3 9 -18 15 -35
15 -20 0 -34 7 -41 20 -6 11 -21 20 -34 20 -13 0 -29 6 -35 14 -7 8 -26 12
-47 10 -33 -2 -35 -1 -30 22 7 27 -3 30 -36 13 -19 -10 -20 -9 -14 14 5 21 1
27 -24 37 -16 7 -37 10 -45 6 -9 -3 -13 -2 -10 4 3 6 15 10 26 10 11 0 18 4
14 9 -3 5 3 12 12 14 12 3 10 5 -7 6 -14 0 -72 -22 -130 -50z m140 -9 c12 -7
10 -9 -8 -7 -12 0 -22 5 -22 9 0 11 12 10 30 -2z m987 -865 c15 -11 15 -13 -4
-23 -16 -9 -24 -7 -41 8 -34 32 -38 60 -11 81 l24 18 8 -36 c4 -20 15 -42 24
-48z m-161 -30 c-16 -9 -32 -13 -35 -10 -8 9 21 25 44 25 16 0 14 -3 -9 -15z
m199 -15 c3 -6 -1 -7 -9 -4 -18 7 -21 14 -7 14 6 0 13 -4 16 -10z"/>
<path d="M12930 15006 c0 -2 8 -10 18 -17 15 -13 16 -12 3 4 -13 16 -21 21
-21 13z"/>
<path d="M11115 14929 c-4 -6 -5 -12 -2 -15 2 -3 7 2 10 11 7 17 1 20 -8 4z"/>
<path d="M20655 14440 c0 -322 3 -440 11 -440 13 0 156 63 394 175 226 105
222 103 340 151 81 33 100 44 85 50 -11 4 -27 13 -35 20 -8 7 -49 31 -90 54
-95 54 -527 318 -559 342 -27 21 -45 24 -35 6 4 -8 3 -10 -2 -5 -5 5 -9 14 -9
20 0 7 -9 11 -18 11 -10 -1 -16 1 -13 4 5 4 -56 52 -66 52 -2 0 -3 -198 -3
-440z m105 329 c0 -6 5 -7 10 -4 6 4 27 -10 48 -29 20 -20 42 -36 50 -36 7 0
10 -5 7 -11 -4 -6 -1 -9 6 -7 18 3 159 -71 159 -84 0 -5 4 -7 9 -4 10 7 84
-28 76 -36 -3 -3 6 -9 22 -12 21 -6 24 -9 12 -17 -11 -8 -9 -9 7 -4 13 3 26 0
33 -9 7 -8 23 -17 37 -20 14 -4 22 -11 18 -17 -3 -6 0 -9 7 -8 16 4 99 -31 99
-41 0 -3 18 -14 40 -24 48 -21 51 -42 8 -52 -18 -4 -35 -8 -38 -9 -3 -1 -26
-11 -52 -23 -26 -11 -69 -28 -95 -37 -44 -15 -48 -15 -60 1 -16 22 -17 34 -2
34 8 0 8 5 -1 15 -7 8 -18 15 -24 14 -34 -4 -55 3 -61 21 -4 14 -21 24 -53 32
-26 6 -41 13 -34 16 7 2 10 8 6 13 -3 5 2 9 10 9 9 0 16 5 16 10 0 9 -41 15
-81 11 -9 -1 -19 5 -23 14 -8 22 -26 9 -26 -18 0 -18 -2 -19 -10 -7 -8 12 -13
11 -33 -8 -13 -12 -29 -22 -35 -22 -11 0 -16 -21 -15 -57 1 -7 -7 -13 -17 -13
-14 0 -17 6 -13 23 4 16 3 19 -6 11 -6 -6 -13 -25 -14 -42 -3 -49 -27 -50 -27
-2 0 73 -15 41 -18 -37 -1 -43 -6 -81 -11 -86 -5 -5 -9 58 -9 150 0 94 3 148
8 133 4 -14 9 -18 9 -10 1 8 4 25 7 38 5 16 2 22 -10 22 -9 0 -16 5 -16 11 0
5 5 7 12 3 7 -5 8 -3 3 6 -4 7 -8 47 -8 89 1 116 2 133 12 126 5 -3 12 -1 16
5 7 12 45 -5 45 -21z m-61 -627 c1 -7 -3 -10 -9 -7 -5 3 -10 21 -9 38 1 31 1
31 9 7 4 -14 8 -31 9 -38z"/>
<path d="M20703 14763 c9 -8 47 -11 47 -4 0 5 -11 9 -25 9 -14 0 -24 -2 -22
-5z"/>
<path d="M20701 14614 c0 -11 3 -14 6 -6 3 7 2 16 -1 19 -3 4 -6 -2 -5 -13z"/>
<path d="M20701 14424 c0 -11 3 -14 6 -6 3 7 2 16 -1 19 -3 4 -6 -2 -5 -13z"/>
<path d="M11649 14763 c-13 -16 -12 -17 4 -4 9 7 17 15 17 17 0 8 -8 3 -21
-13z"/>
<path d="M6735 14720 c-3 -6 1 -7 9 -4 18 7 21 14 7 14 -6 0 -13 -4 -16 -10z"/>
<path d="M16427 14553 c-4 -3 -7 -11 -7 -17 0 -6 5 -5 12 2 6 6 9 14 7 17 -3
3 -9 2 -12 -2z"/>
<path d="M7620 14543 c-28 -5 -53 -23 -29 -22 7 0 30 7 49 14 35 13 27 16 -20
8z"/>
<path d="M12120 14431 c-137 -44 -287 -131 -382 -219 -118 -110 -228 -299
-267 -458 -40 -161 -41 -234 -41 -2341 0 -1823 2 -2052 16 -2121 40 -195 109
-261 275 -262 98 0 154 14 259 67 173 88 304 202 402 350 78 118 116 208 129
311 14 107 25 1560 23 3119 -2 1172 -4 1305 -18 1334 -9 18 -16 41 -16 51 0
10 -9 35 -19 56 -58 113 -213 161 -361 113z"/>
<path d="M11237 14338 c-40 -55 -42 -65 -4 -23 33 37 44 55 33 55 -3 0 -16
-15 -29 -32z"/>
<path d="M7295 14340 c-3 -5 1 -10 9 -10 9 0 16 5 16 10 0 6 -4 10 -9 10 -6 0
-13 -4 -16 -10z"/>
<path d="M21390 14211 c-63 -26 -160 -70 -215 -98 -55 -27 -149 -71 -210 -98
-60 -26 -157 -69 -215 -96 l-105 -49 4 -267 c1 -148 5 -270 7 -272 2 -2 47 17
101 42 360 169 685 307 726 307 12 0 27 4 32 8 6 4 10 113 10 290 0 182 -4
282 -10 281 -5 0 -62 -22 -125 -48z"/>
<path d="M8624 14070 c-169 -30 -463 -123 -472 -148 -2 -8 13 -6 45 6 61 24
272 79 338 87 110 15 235 -5 329 -52 28 -14 70 -35 94 -47 23 -11 42 -24 42
-28 0 -5 6 -8 13 -8 7 0 33 -23 58 -51 24 -28 50 -57 57 -64 6 -7 12 -16 12
-19 0 -3 8 -14 18 -24 38 -41 60 -75 55 -88 -3 -8 -1 -14 3 -14 28 0 77 -248
77 -385 0 -95 -9 -155 -23 -155 -13 0 -13 -1 0 -10 8 -5 11 -12 8 -15 -10 -10
-28 4 -28 21 0 9 -5 14 -12 12 -6 -2 -13 -24 -14 -48 -2 -31 1 -39 8 -29 7 10
8 9 3 -7 -3 -12 3 -84 14 -160 30 -209 31 -278 21 -804 -16 -855 -37 -921
-542 -1676 -118 -175 -249 -375 -292 -444 -44 -69 -143 -222 -220 -340 -78
-118 -163 -249 -189 -290 -27 -41 -101 -156 -165 -255 -64 -100 -142 -220
-172 -268 -80 -128 -127 -202 -185 -292 -29 -44 -94 -158 -145 -254 -176 -327
-200 -443 -206 -1011 -12 -1059 -12 -1011 6 -995 17 15 34 23 225 103 66 28
181 79 255 112 74 34 218 97 320 139 226 95 919 392 1090 468 69 31 177 76
240 100 63 25 150 63 193 85 105 52 288 128 362 148 l59 17 0 256 c0 141 -2
259 -6 262 -7 7 -187 -60 -298 -113 -339 -159 -431 -201 -479 -217 -29 -9 -65
-24 -80 -31 -14 -8 -32 -14 -39 -14 -7 0 -38 -13 -70 -29 -31 -15 -68 -32 -82
-36 -14 -4 -53 -20 -88 -36 -35 -16 -69 -29 -75 -29 -7 0 -48 -17 -92 -39 -44
-21 -156 -72 -250 -114 -236 -104 -242 -107 -410 -182 -82 -36 -172 -78 -200
-92 -99 -50 -95 -50 -95 15 l0 57 73 33 c39 19 194 85 342 149 149 63 326 139
395 170 69 30 193 84 275 120 355 153 473 204 650 283 228 102 416 181 475
200 l55 18 0 261 c0 143 -3 261 -7 261 -3 0 -19 -7 -35 -15 -35 -19 -198 -91
-363 -160 -181 -77 -483 -210 -569 -251 -40 -20 -90 -41 -110 -49 -20 -7 -121
-52 -226 -100 -448 -206 -650 -295 -662 -291 -7 3 -13 1 -13 -4 0 -5 -16 -14
-35 -21 -19 -7 -35 -16 -35 -20 0 -8 -50 -23 -64 -20 -4 1 -14 -6 -20 -15 -11
-15 -15 -12 -36 22 -38 65 -50 113 -50 202 0 59 4 88 13 96 8 6 22 43 32 81 9
39 25 81 34 95 9 14 30 50 45 80 41 79 141 245 191 315 46 65 243 362 340 512
33 51 66 93 73 93 7 0 11 4 7 10 -3 5 10 31 28 57 19 26 88 134 154 239 66
105 172 267 234 362 63 94 168 252 234 351 66 100 139 209 163 243 207 301
390 687 452 953 42 178 49 317 54 1015 4 629 -3 915 -24 1032 -43 233 -182
459 -372 601 -54 40 -178 90 -293 118 -102 24 -280 24 -421 -1z"/>
<path d="M8105 13906 c-18 -13 -18 -14 8 -9 15 3 27 9 27 14 0 13 -13 11 -35
-5z"/>
<path d="M7993 13855 c-18 -8 -33 -16 -33 -19 0 -6 51 14 65 26 13 11 5 10
-32 -7z"/>
<path d="M7825 13765 c-51 -31 -205 -145 -269 -198 -36 -31 10 -4 85 51 131
94 158 112 166 112 9 1 91 70 82 70 -3 0 -32 -16 -64 -35z"/>
<path d="M8310 13619 c-106 -29 -211 -64 -255 -87 -27 -14 -56 -27 -64 -28
-14 -3 -334 -162 -376 -187 -11 -7 -36 -24 -56 -39 -20 -16 -40 -28 -44 -28
-19 0 -175 -107 -186 -127 -7 -13 -16 -23 -21 -23 -11 0 -89 -81 -144 -150
-24 -30 -49 -61 -54 -67 -6 -7 -25 -34 -42 -60 -18 -27 -34 -50 -37 -53 -4 -3
-7 -12 -9 -20 -2 -8 -9 -22 -16 -30 -7 -8 -18 -28 -24 -45 -5 -16 -22 -50 -36
-75 -14 -25 -33 -60 -41 -77 -8 -18 -21 -33 -28 -33 -9 0 -8 -3 2 -9 9 -6 10
-11 2 -15 -20 -13 -101 -173 -101 -200 0 -19 -4 -25 -12 -20 -7 5 -1 -8 15
-28 31 -42 35 -58 10 -36 -28 24 -40 28 -41 15 0 -7 -5 -30 -10 -52 -6 -22
-13 -66 -17 -97 -3 -32 -11 -58 -16 -58 -5 0 -19 -21 -29 -46 -11 -25 -24 -43
-28 -40 -19 11 -26 -178 -27 -665 l0 -506 35 22 c19 12 73 39 120 59 47 21
114 51 149 67 35 16 76 29 91 29 58 0 55 -27 52 463 -4 492 7 744 38 872 111
464 440 881 885 1122 412 223 722 254 938 92 l42 -31 -35 32 c-68 60 -158 103
-298 140 -23 6 -40 15 -37 20 8 13 -248 11 -295 -1z"/>
<path d="M21430 13561 c-61 -21 -196 -80 -370 -163 -102 -49 -365 -164 -413
-181 -14 -5 -16 -12 -10 -34 4 -16 7 -137 7 -269 l-1 -242 61 23 c120 46 173
67 291 120 401 178 463 201 507 190 l23 -6 0 291 c0 331 9 305 -95 271z"/>
<path d="M8500 13445 c-225 -45 -662 -256 -774 -374 -28 -30 -32 -45 -4 -18
91 87 365 233 499 265 139 34 208 17 307 -73 35 -32 92 -109 92 -126 0 -5 16
-32 35 -59 19 -27 35 -57 35 -66 0 -9 9 -31 19 -48 10 -17 22 -47 26 -66 4
-19 11 -37 16 -40 9 -6 39 -173 32 -180 -2 -2 -8 2 -13 10 -9 13 -10 13 -10 0
0 -13 -1 -13 -10 0 -12 19 -11 31 -13 -148 -2 -85 1 -156 5 -158 5 -3 8 -13 7
-22 0 -14 -2 -13 -9 3 -4 11 -10 -212 -12 -495 -4 -496 -5 -518 -27 -589 -45
-151 -153 -337 -410 -706 -27 -38 -96 -142 -155 -230 -58 -88 -154 -233 -213
-322 -59 -89 -193 -293 -298 -452 -104 -160 -235 -359 -290 -441 -108 -162
-144 -219 -246 -386 -36 -60 -98 -160 -138 -222 -39 -62 -85 -141 -102 -175
-17 -34 -37 -73 -44 -87 -27 -52 -85 -225 -109 -325 -68 -283 -69 -302 -72
-1174 -2 -654 0 -780 11 -765 15 22 68 50 175 94 41 17 96 40 122 52 26 12 70
22 97 22 27 1 53 4 56 8 4 3 6 323 6 710 -1 444 3 727 9 768 6 36 15 94 20
130 9 65 58 238 84 295 7 17 33 73 56 125 24 52 51 104 61 116 11 11 19 24 19
29 0 4 15 31 33 59 52 82 56 89 81 137 14 25 36 59 49 75 13 16 34 47 46 69
12 22 42 72 67 110 24 39 62 99 84 135 22 36 56 85 74 110 19 25 88 130 153
233 65 103 164 256 219 340 56 84 139 211 184 282 46 72 151 234 235 360 325
490 386 587 449 713 93 185 136 312 164 482 15 91 17 188 17 720 0 689 -2 712
-71 898 -58 155 -124 244 -232 316 -75 49 -131 70 -224 86 -76 12 -85 12 -168
-5z"/>
<path d="M7339 13363 c-13 -16 -12 -17 4 -4 16 13 21 21 13 21 -2 0 -10 -8
-17 -17z"/>
<path d="M17721 13324 c0 -11 3 -14 6 -6 3 7 2 16 -1 19 -3 4 -6 -2 -5 -13z"/>
<path d="M7155 13170 c-10 -11 -16 -22 -13 -25 3 -3 13 4 23 15 10 11 16 22
13 25 -3 3 -13 -4 -23 -15z"/>
<path d="M7614 12977 l-49 -52 50 45 c27 25 52 46 54 48 2 1 2 4 0 7 -3 2 -27
-19 -55 -48z"/>
<path d="M8175 12995 c-110 -15 -155 -26 -192 -50 -13 -9 -28 -13 -33 -10 -6
4 -13 -1 -16 -9 -3 -9 -12 -16 -19 -16 -16 0 -129 -60 -133 -71 -2 -5 -8 -9
-14 -9 -5 0 -22 -8 -36 -18 -15 -11 -52 -32 -82 -48 -51 -26 -98 -63 -139
-106 -9 -9 -42 -43 -74 -74 -61 -61 -97 -115 -116 -176 -7 -21 -16 -38 -20
-38 -11 0 -35 -51 -37 -76 0 -11 -4 -33 -8 -49 -6 -22 -10 -25 -16 -15 -7 11
-11 12 -25 0 -8 -7 -14 -18 -12 -24 4 -11 -19 -66 -28 -66 -2 0 -2 17 0 38 l5
37 -10 -38 c-18 -70 -28 -322 -29 -776 -1 -432 0 -453 16 -439 10 9 51 30 92
48 40 17 118 54 174 81 101 50 143 59 165 37 9 -9 12 90 12 448 0 502 6 593
50 726 89 267 241 436 505 559 104 49 170 63 266 56 74 -5 130 -24 189 -63 16
-11 15 -8 -5 9 -31 26 -59 41 -130 73 -43 20 -67 39 -63 51 6 23 -96 26 -237
8z m-995 -1186 c0 -6 -4 -7 -10 -4 -5 3 -10 11 -10 16 0 6 5 7 10 4 6 -3 10
-11 10 -16z"/>
<path d="M21480 12935 c-25 -13 -41 -24 -37 -25 11 0 87 39 87 45 0 7 0 7 -50
-20z"/>
<path d="M21361 12884 c-18 -8 -31 -17 -28 -20 3 -3 22 4 44 15 44 23 34 26
-16 5z"/>
<path d="M21290 12850 c-8 -5 -10 -10 -5 -10 6 0 17 5 25 10 8 5 11 10 5 10
-5 0 -17 -5 -25 -10z"/>
<path d="M20738 12617 c-82 -35 -117 -57 -52 -33 55 20 151 65 139 65 -5 0
-45 -14 -87 -32z"/>
<path d="M19440 12058 c-72 -44 -187 -102 -319 -160 -75 -33 -194 -86 -266
-118 -71 -32 -188 -83 -260 -113 -211 -89 -814 -359 -870 -390 -49 -26 0 -21
87 9 143 51 142 51 176 22 17 -14 81 -51 144 -83 226 -115 508 -278 758 -439
85 -55 201 -123 257 -152 57 -29 115 -61 130 -71 16 -11 49 -27 76 -37 l48
-18 82 39 c45 22 112 52 149 68 37 16 66 31 64 33 -2 2 -52 -17 -111 -43 -60
-25 -109 -44 -111 -43 -1 2 2 26 8 53 8 41 2 1453 -6 1462 -1 1 -17 -7 -36
-19z"/>
<path d="M18525 11681 c-53 -25 -43 -26 20 -1 28 10 43 19 35 19 -8 0 -33 -8
-55 -18z"/>
<path d="M18430 11640 c-25 -10 -37 -19 -27 -19 18 -1 77 25 77 34 0 6 3 7
-50 -15z"/>
<path d="M18350 11610 c-8 -5 -10 -10 -5 -10 6 0 17 5 25 10 8 5 11 10 5 10
-5 0 -17 -5 -25 -10z"/>
<path d="M17619 11243 c-33 -5 -39 -24 -39 -121 0 -55 3 -73 13 -70 8 3 13 31
15 82 3 74 4 77 35 96 31 20 29 21 -24 13z"/>
<path d="M20546 11011 c-17 -19 -17 -19 3 -14 12 3 21 12 21 19 0 18 -4 18
-24 -5z"/>
<path d="M20460 10973 c-8 -3 -39 -15 -68 -25 -29 -11 -52 -22 -50 -24 4 -3
139 44 147 52 6 5 -10 4 -29 -3z"/>
<path d="M20185 10865 c-55 -25 -129 -58 -165 -72 -63 -25 -94 -42 -87 -49 2
-2 62 23 133 55 186 84 240 110 229 110 -5 1 -55 -20 -110 -44z"/>
<path d="M19755 10676 c-27 -14 -45 -25 -40 -25 14 0 112 47 100 48 -5 0 -32
-10 -60 -23z"/>
<path d="M17360 10414 c-69 -30 -192 -84 -275 -119 -82 -35 -220 -93 -305
-130 -85 -36 -225 -95 -311 -130 -86 -35 -176 -72 -200 -83 -24 -11 -152 -66
-284 -122 -132 -56 -276 -118 -320 -137 -109 -48 -230 -97 -345 -140 -52 -19
-131 -52 -175 -73 -44 -21 -102 -48 -130 -60 -99 -43 -210 -95 -215 -100 -7
-8 -155 -75 -234 -106 -44 -18 -71 -24 -73 -17 -3 7 -32 -4 -71 -25 -37 -19
-77 -40 -89 -46 -21 -11 -22 -16 -25 -251 -2 -132 -3 -241 -2 -243 1 -1 21 9
45 22 24 14 87 40 139 59 88 32 168 66 675 279 105 44 237 100 295 123 58 24
139 58 180 75 41 17 172 71 290 120 118 48 278 115 355 148 77 33 237 100 355
150 653 273 842 347 867 338 19 -8 16 -50 -4 -68 -15 -12 -172 -78 -187 -78
-2 0 -37 -15 -78 -33 -40 -18 -92 -41 -116 -52 -23 -10 -40 -20 -38 -22 3 -3
31 7 63 20 66 29 314 131 357 147 28 10 29 12 22 63 -3 28 -9 122 -11 207 -7
214 -16 340 -23 339 -4 0 -63 -25 -132 -55z"/>
<path d="M17005 9664 c-27 -13 -39 -21 -25 -18 29 7 100 43 85 43 -5 0 -32
-11 -60 -25z"/>
<path d="M16910 9625 c-14 -8 -20 -14 -15 -14 6 0 21 6 35 14 14 8 21 14 15
14 -5 0 -21 -6 -35 -14z"/>
<path d="M16705 9549 c-99 -38 -217 -93 -207 -97 5 -1 61 20 125 48 64 27 120
50 126 50 5 0 13 5 16 10 8 13 -1 12 -60 -11z"/>
<path d="M16380 9410 c-13 -8 -13 -10 2 -10 9 0 20 5 23 10 8 13 -5 13 -25 0z"/>
<path d="M16280 9368 c-79 -41 -66 -43 26 -2 30 13 54 28 54 34 0 5 -1 10 -2
9 -2 0 -37 -19 -78 -41z"/>
<path d="M15993 9245 c-40 -18 -73 -36 -73 -39 0 -5 160 61 169 70 14 14 -34
-1 -96 -31z"/>
<path d="M15700 9128 c-14 -6 -48 -21 -77 -34 -28 -13 -56 -24 -62 -24 -5 0
-13 -5 -17 -11 -9 -15 23 -5 111 36 39 17 77 34 85 38 13 5 13 5 0 6 -8 0 -26
-5 -40 -11z"/>
<path d="M15365 8989 c-27 -11 -75 -31 -105 -46 -30 -14 -113 -49 -185 -78
-164 -67 -224 -95 -207 -95 20 0 562 228 562 236 0 7 -15 3 -65 -17z"/>
<path d="M14785 8741 c-22 -11 -35 -19 -30 -19 14 -1 93 36 80 37 -5 0 -28 -8
-50 -18z"/>
<path d="M14670 8697 c-14 -7 -41 -19 -60 -27 -62 -24 -120 -50 -120 -55 0 -5
109 36 180 69 30 14 48 25 40 25 -8 1 -26 -5 -40 -12z"/>
<path d="M14401 8584 c-40 -19 -79 -34 -86 -34 -7 0 -19 -8 -26 -17 -16 -19
-26 -22 101 33 91 40 95 42 89 48 -2 2 -37 -11 -78 -30z"/>
<path d="M16951 8361 c-7 -5 -9 -11 -5 -14 10 -5 54 9 54 18 0 8 -34 6 -49 -4z"/>
<path d="M18230 8306 c-85 -35 -198 -82 -250 -105 -52 -22 -99 -41 -103 -41
-4 0 -29 -10 -55 -21 -100 -46 -134 -59 -142 -54 -14 8 -32 -23 -25 -45 3 -11
10 -20 15 -20 8 0 125 47 549 219 96 39 178 77 183 84 12 19 9 47 -4 47 -7 -1
-83 -29 -168 -64z"/>
<path d="M17000 8345 c-7 -8 -21 -15 -31 -15 -12 0 -16 -5 -13 -15 5 -12 -3
-15 -45 -12 -34 1 -51 6 -51 15 0 28 -26 4 -55 -51 -16 -31 -58 -105 -91 -164
-59 -105 -278 -526 -357 -688 -25 -51 -36 -84 -31 -93 5 -7 39 -30 75 -50 66
-36 66 -36 100 -19 56 29 160 87 238 133 40 24 77 44 82 44 5 0 9 -17 9 -37 0
-37 9 -84 25 -132 6 -21 5 -23 -15 -18 -12 3 -30 2 -39 -4 -9 -5 -73 -31 -143
-59 -70 -27 -147 -58 -170 -69 -24 -10 -52 -22 -62 -25 -68 -23 97 -24 222 -1
117 21 180 39 292 87 139 59 131 54 118 84 -9 20 -9 27 0 33 8 5 10 22 6 52
-8 58 -7 91 8 166 l12 62 63 27 c79 34 90 47 20 24 -29 -9 -74 -16 -101 -15
-55 2 -114 -13 -190 -50 -28 -13 -95 -36 -150 -50 -91 -23 -102 -29 -142 -72
-24 -26 -47 -44 -50 -40 -6 6 59 139 288 587 74 146 138 277 142 293 3 15 11
27 16 27 6 0 10 7 10 15 0 8 14 17 35 21 19 3 32 10 29 15 -8 14 -40 11 -54
-6z m-492 -1067 c-6 -18 -28 -21 -28 -4 0 9 7 16 16 16 9 0 14 -5 12 -12z"/>
<path d="M16974 8062 c-122 -237 -221 -412 -256 -450 -44 -48 -45 -61 -1 -39
15 8 55 22 88 32 33 9 92 31 130 48 l70 31 -3 152 c-2 83 1 185 7 225 5 40 9
75 7 76 -1 2 -20 -32 -42 -75z"/>
<path d="M17052 7920 c0 -14 2 -19 5 -12 2 6 2 18 0 25 -3 6 -5 1 -5 -13z"/>
<path d="M17053 7810 c0 -30 2 -43 4 -27 2 15 2 39 0 55 -2 15 -4 2 -4 -28z"/>
<path d="M15488 7826 c-173 -61 -336 -228 -384 -394 -20 -68 -16 -81 26 -97
19 -7 54 -21 77 -30 49 -21 84 -15 99 17 102 209 154 276 221 285 50 6 72 -11
84 -67 26 -116 -22 -210 -344 -666 -50 -71 -123 -171 -160 -222 -79 -106 -80
-115 -9 -164 46 -32 46 -33 20 -36 -30 -4 -37 -19 -14 -28 19 -7 607 247 749
324 55 29 59 40 55 142 l-3 75 -40 -1 c-49 -1 -202 -60 -306 -119 -83 -48
-159 -78 -159 -64 0 5 11 11 24 15 14 3 32 14 42 25 16 18 16 19 -4 19 -25 0
-30 28 -10 48 10 10 16 8 28 -9 16 -20 16 -20 49 18 163 193 276 354 314 448
20 50 24 75 23 155 -2 85 -5 99 -30 138 -34 54 -79 74 -164 76 -55 1 -65 -2
-85 -25 -12 -15 -42 -35 -67 -47 -25 -11 -61 -36 -80 -56 -49 -50 -68 -48 -64
6 4 47 20 73 80 138 38 41 80 65 184 108 56 23 -84 12 -152 -12z m322 -436
c-15 -37 -33 -40 -19 -4 13 36 20 46 26 40 3 -3 0 -19 -7 -36z m-60 -100 c-6
-11 -13 -20 -16 -20 -2 0 0 9 6 20 6 11 13 20 16 20 2 0 0 -9 -6 -20z m-60
-95 c-7 -9 -15 -13 -18 -10 -3 2 1 11 8 20 7 9 15 13 18 10 3 -2 -1 -11 -8
-20z m199 -270 c-11 -11 -79 -16 -79 -6 0 6 19 11 42 11 23 0 39 -2 37 -5z
m-136 -62 c-7 -3 -13 -10 -13 -16 0 -10 -114 -61 -139 -62 -3 -1 -20 -9 -38
-18 -18 -9 -37 -17 -43 -17 -8 0 -79 -30 -112 -47 -17 -9 -7 7 20 32 30 29
197 117 205 109 8 -8 48 6 43 15 -3 4 16 7 42 8 26 0 41 -1 35 -4z"/>
<path d="M11885 7750 c-16 -7 -17 -9 -3 -9 9 -1 20 4 23 9 7 11 7 11 -20 0z"/>
<path d="M17073 7734 c-39 -23 -56 -44 -35 -44 9 0 90 69 82 69 -3 1 -24 -11
-47 -25z"/>
<path d="M14123 7275 c-34 -7 -70 -18 -81 -24 -10 -5 -37 -16 -60 -24 -22 -8
-78 -39 -125 -70 -215 -143 -391 -416 -443 -685 -18 -97 -18 -233 1 -307 26
-101 116 -220 197 -261 26 -13 48 -29 48 -34 0 -12 -7 -12 -48 -1 -45 13 -63
5 -56 -25 4 -14 1 -31 -6 -39 -21 -25 36 -19 126 14 43 16 95 32 114 36 52 11
268 106 355 156 138 79 351 332 385 459 7 25 18 56 25 70 41 81 54 359 20 445
-22 56 -57 105 -74 105 -6 0 -11 5 -11 11 0 5 -17 17 -37 25 -21 8 -47 20 -58
26 -29 17 -175 23 -221 9 -77 -24 -109 -42 -127 -73 -17 -29 -17 -30 0 -24 21
8 13 1 -39 -37 -20 -15 -41 -27 -45 -27 -12 0 -74 -66 -103 -110 -19 -28 -9
-21 45 29 77 72 163 117 240 126 62 8 96 -6 143 -60 58 -65 66 -91 66 -200 0
-157 -52 -295 -154 -411 -14 -16 -73 -72 -131 -125 -100 -91 -109 -97 -177
-114 -40 -9 -75 -21 -78 -26 -3 -6 4 -7 18 -4 52 12 145 20 183 15 35 -5 38
-7 20 -16 -25 -14 -96 -31 -157 -39 -121 -16 -205 94 -238 314 -5 30 -7 58 -5
61 3 4 9 40 16 81 6 41 16 79 21 86 5 7 7 16 4 21 -6 11 39 82 83 130 17 18
34 45 37 60 11 50 46 142 55 142 5 0 9 6 9 14 0 8 7 16 15 20 9 3 15 18 15 38
0 26 10 42 54 83 65 60 211 144 281 161 l50 12 -45 0 c-25 0 -73 -6 -107 -13z"/>
<path d="M16378 7063 c7 -3 16 -2 19 1 4 3 -2 6 -13 5 -11 0 -14 -3 -6 -6z"/>
<path d="M12410 6550 c-170 -30 -368 -206 -430 -381 -34 -98 -32 -110 25 -141
59 -32 129 -46 149 -29 8 7 30 46 50 87 23 49 57 97 97 139 63 66 101 89 141
83 20 -3 24 -11 32 -66 18 -125 -19 -192 -344 -627 -190 -254 -194 -260 -196
-295 -1 -19 -4 -42 -7 -50 -3 -8 -8 -41 -11 -72 -5 -51 -4 -58 11 -58 37 0
101 23 213 75 313 144 471 216 530 242 105 45 99 37 101 140 2 51 -1 96 -5
100 -8 8 -29 2 -225 -61 -79 -25 -164 -58 -188 -73 -25 -16 -58 -36 -74 -46
-66 -42 -12 28 64 84 51 37 229 247 272 320 19 32 41 80 50 106 9 26 20 52 24
58 5 5 16 43 25 83 12 53 14 78 6 92 -8 15 -8 20 1 18 40 -9 0 102 -49 139
-30 22 -129 42 -117 24 4 -8 -1 -8 -17 -2 -26 9 -64 8 -74 -2 -4 -4 -22 -7
-39 -7 -18 0 -54 -7 -81 -15 -27 -8 -51 -15 -53 -15 -21 0 123 113 185 145 29
15 29 15 4 14 -14 -1 -45 -5 -70 -9z m330 -901 c0 -13 -14 -17 -35 -9 -14 5
-24 1 -36 -14 -10 -12 -20 -18 -24 -14 -3 3 2 16 12 27 12 15 28 21 50 19 18
-1 33 -5 33 -9z"/>
<path d="M8070 6540 c0 -5 7 -7 15 -4 8 4 15 8 15 10 0 2 -7 4 -15 4 -8 0 -15
-4 -15 -10z"/>
<path d="M11335 5480 c-44 -16 -123 -45 -175 -65 -52 -20 -106 -40 -120 -45
-14 -4 -61 -25 -105 -45 -44 -20 -96 -43 -115 -52 -19 -9 -42 -19 -50 -23 -18
-9 -25 -39 -12 -52 6 -6 20 -4 39 6 17 8 70 30 119 49 201 77 520 210 533 222
16 16 7 35 -17 35 -9 -1 -53 -14 -97 -30z"/>
</g>
</svg>
